# xmcd
# Copyright (C) 1995-1998 Ti Kan
#
# Track frame offsets:
#       150
#       19306
#       37235
#       55916
#       69622
#       88275
#       99573
#       117638
#       126434
#       146562
#       165796
#       188396
#       202290
#       217608
#       233733
#       251171
#       270467
#       284848
#       300421
#       319126
#
# Disc length: 4510 seconds
#
# Revision: 0
# Processed by: cddbd v1.5.2PL0 Copyright (c) Steve Scherf et al.
# Submitted via: CD-Transfer v1.0
#
DISCID=30119c14
DTITLE=Master 78 - Various Pro Disc 78
DYEAR=07
DGENRE=
TTITLE0=Christina Aguilera Back In The Day
TTITLE1=All Saints On And On
TTITLE2=Richard Ashcroft Why Not Nothing?
TTITLE3=El Chombo Chacarron
TTITLE4=Fergie Feat. Ludacris Glamours
TTITLE5=Kasabian Me Plus One
TTITLE6=Avril Lavigne Keep Holding On
TTITLE7=Lazy Town Bing Bang
TTITLE8=Mcfly Sorry`s Not Good Enough
TTITLE9=James Morrison The Pieces On`t Fit Anymore
TTITLE10=My Chemical Romance Famous Last Words
TTITLE11=The Ordinary Boys - I Luv U
TTITLE12=Razorlight Before I Fall To Pieces
TTITLE13=Red Hot Chili Peppers Hump The Bump
TTITLE14=Scissor Sisters Land Of Thousand Words
TTITLE15=Snoop Dogg That´s That
TTITLE16=Gwen Stefani Wind Ip Up
TTITLE17=Sugababes Good To Be Gone
TTITLE18=U2 Wiondow In The Sky
TTITLE19=Amy Hinehouse You Know I`m No Good
EXTD=
EXTT0=
EXTT1=
EXTT2=
EXTT3=
EXTT4=
EXTT5=
EXTT6=
EXTT7=
EXTT8=
EXTT9=
EXTT10=
EXTT11=
EXTT12=
EXTT13=
EXTT14=
EXTT15=
EXTT16=
EXTT17=
EXTT18=
EXTT19=
PLAYORDER=
